<svg xmlns="http://www.w3.org/2000/svg" xmlns:xlink="http://www.w3.org/1999/xlink" viewBox="0 0 39.15 34.99"><defs><style>.cls-1{isolation:isolate;}.cls-2{opacity:0.6;mix-blend-mode:multiply;}.cls-3{fill:url(#linear-gradient);}.cls-4{fill:url(#linear-gradient-2);}.cls-5{fill:url(#linear-gradient-3);}</style><linearGradient id="linear-gradient" x1="0.86" y1="18.96" x2="17.14" y2="-4.59" gradientUnits="userSpaceOnUse"><stop offset="0" stop-color="#16b1da"/><stop offset="0.52" stop-color="#0a71b5"/><stop offset="0.95" stop-color="#08679a"/></linearGradient><linearGradient id="linear-gradient-2" x1="16.82" y1="21.59" x2="26.11" y2="1.66" xlink:href="#linear-gradient"/><linearGradient id="linear-gradient-3" x1="31.76" y1="-2.15" x2="50.89" y2="-2.15" gradientTransform="translate(-12.31 16.13) rotate(1.79)" xlink:href="#linear-gradient"/></defs><title>favicon</title><g class="cls-1"><g id="Layer_1" data-name="Layer 1"><g class="cls-2"><path d="M16.06.26a2.82,2.82,0,0,0-.42,0,3.91,3.91,0,0,0-.9.2,3,3,0,0,0-1.06.68A2.47,2.47,0,0,0,13,2.33q-.75,2.82-1.44,5.21c-.47,1.58-.92,3.1-1.36,4.55S9.37,15,8.94,16.34,8.1,19.13,7.7,20.59c0,0,0,0,0,0s0,0-.09-.08a2.56,2.56,0,0,1-.23-.42c-.1-.22-.25-.59-.43-1.11s-.41-1.21-.68-2.08-.61-2-1-3.35-.88-3-1.42-4.92S2.63,4.4,1.92,1.77a.86.86,0,0,0-.33-.52A2.1,2.1,0,0,0,1,1,3.62,3.62,0,0,0,.26.92L7,25.25l0,0a1.47,1.47,0,0,0,1,.89,4.27,4.27,0,0,0,1.75.06L17.05,1.58,17.39.45l.06-.19Z"/></g><path class="cls-3" d="M15.8,0l-.42,0a4.27,4.27,0,0,0-.89.2A2.88,2.88,0,0,0,13.43.9a2.57,2.57,0,0,0-.65,1.18Q12,4.9,11.34,7.28c-.46,1.59-.92,3.11-1.35,4.56s-.87,2.87-1.3,4.24-.84,2.8-1.24,4.26c0,0,0-.05,0,0s0,0-.1-.07a4.18,4.18,0,0,1-.23-.43c-.1-.22-.24-.58-.43-1.1S6.24,17.49,6,16.62s-.6-2-1-3.34-.88-3-1.43-4.93S2.37,4.15,1.67,1.51A.82.82,0,0,0,1.33,1,1.83,1.83,0,0,0,.76.75,3,3,0,0,0,0,.67L6.78,25l0,0a1.41,1.41,0,0,0,1,.88A4.29,4.29,0,0,0,9.52,26L16.8,1.32,17.13.19,17.19,0Z"/><g class="cls-2"><path d="M34.63.26H17.45l-.06.19-.34,1.13H20.5l-.81,2.7L14.55,21.63c-.26.91-.51,1.89-.77,2.91s-.47,2-.68,3a17.44,17.44,0,0,0-.38,2.94A7.07,7.07,0,0,0,13,32.83a3.16,3.16,0,0,0,1,1.56,2.86,2.86,0,0,0,1.82.59,5.72,5.72,0,0,0,2.71-.52,7.86,7.86,0,0,0,2.2-1.62,13.51,13.51,0,0,0,1.86-2.47c.57-.95,1.12-2,1.66-3.1l-.81,0a1.14,1.14,0,0,0-1,.61c-.36.67-.75,1.36-1.19,2.06a14,14,0,0,1-1.74,2.29,5.49,5.49,0,0,1-1.83,1.31,1.67,1.67,0,0,1-1.76-.31,1,1,0,0,1-.25-.8A7.88,7.88,0,0,1,15.84,31c.11-.6.27-1.28.47-2s.44-1.54.7-2.36c.13-.44.32-1.06.57-1.88s.54-1.75.87-2.81.67-2.18,1-3.4.73-2.43,1.1-3.65.73-2.42,1.08-3.59L22.59,8l.72-2.48c.19-.69.32-1.18.37-1.45A5.37,5.37,0,0,0,24,2.6a2.82,2.82,0,0,0-.11-1h9.41C34.3,1.45,34.74,1,34.63.26Z"/></g><path class="cls-4" d="M34.37,0H17.19l-.06.19L16.8,1.32h3.44L19.43,4,14.3,21.37c-.26.92-.52,1.89-.77,2.92s-.48,2-.69,3a17.36,17.36,0,0,0-.37,2.94,7.36,7.36,0,0,0,.26,2.35,3.16,3.16,0,0,0,1,1.57,3,3,0,0,0,1.81.59,5.58,5.58,0,0,0,2.71-.53,7.53,7.53,0,0,0,2.21-1.62,12.73,12.73,0,0,0,1.85-2.47c.57-.95,1.13-2,1.67-3.1l-.82,0a1.18,1.18,0,0,0-1,.61c-.35.68-.75,1.36-1.18,2.06A13.6,13.6,0,0,1,19.25,32a5.17,5.17,0,0,1-1.83,1.31A1.63,1.63,0,0,1,15.67,33a.94.94,0,0,1-.26-.79,8.87,8.87,0,0,1,.17-1.52c.11-.6.27-1.27.48-2s.43-1.53.69-2.36l.58-1.88.86-2.8c.33-1.05.67-2.19,1-3.4s.73-2.43,1.1-3.66.73-2.42,1.07-3.59.66-2.23.94-3.19.52-1.79.71-2.49.32-1.17.38-1.44a5.76,5.76,0,0,0,.33-1.51,2.85,2.85,0,0,0-.11-1h9.41C34.05,1.2,34.49.76,34.37,0Z"/><g class="cls-2"><path d="M31.8,22.47l.7-2a12.68,12.68,0,0,0,.58-2.21,5.67,5.67,0,0,0,0-2A2.05,2.05,0,0,0,32,14.89a4.76,4.76,0,0,0-1.18-.44,9.32,9.32,0,0,0-1-.17,5,5,0,0,0-1,0L29.06,13a.71.71,0,0,0,.52.18,1.92,1.92,0,0,0,.73-.15,4.38,4.38,0,0,0,1.12-.68,9.75,9.75,0,0,0,1.2-1.3A13.34,13.34,0,0,0,34,8.93a10.14,10.14,0,0,0,.87-2.46,4,4,0,0,0-.13-2.35c-.21-.51-.5-.78-.88-.82a1.81,1.81,0,0,0-1.29.54,7.54,7.54,0,0,0-1.48,1.82,17.49,17.49,0,0,0-1.47,3c-.49,1.45-1,2.84-1.46,4.2s-1,2.73-1.45,4.14-1,2.89-1.46,4.45-1,3.27-1.52,5.12a2.45,2.45,0,0,1-.65,1.21,2.21,2.21,0,0,1-1,.54,3.77,3.77,0,0,1-1.27.06,12,12,0,0,1-1.42-.24L26.87,2.8a5.79,5.79,0,0,1,1.74.31,2.36,2.36,0,0,1,.89.57,1,1,0,0,1,.27.66,1.28,1.28,0,0,1-.11.55c.27-.41.58-.81.91-1.22a6.29,6.29,0,0,1,1.18-1.06A4.15,4.15,0,0,1,33.31,2a5.49,5.49,0,0,1,2,0,4.84,4.84,0,0,1,1.85.82,4.1,4.1,0,0,1,1.4,1.66,5.82,5.82,0,0,1,.53,2.16A7,7,0,0,1,38.85,9a7.4,7.4,0,0,1-1.06,2.19A6.56,6.56,0,0,1,36,12.92a6.24,6.24,0,0,1-2.47.94c-.41.06-.69.1-.83.14l-.27.05h-.08l-.22,0a12.46,12.46,0,0,1,2.49,1.2,4.75,4.75,0,0,1,1.72,1.87A5.32,5.32,0,0,1,36.82,20a12.54,12.54,0,0,1-1.22,4.19,8.1,8.1,0,0,1-1.36,2.26A8.84,8.84,0,0,1,32.39,28a7.52,7.52,0,0,1-2.13,1,7.07,7.07,0,0,1-2.15.26,4.77,4.77,0,0,1-1.91-.48,3.56,3.56,0,0,1-1.44-1.26l.73-.95a2.77,2.77,0,0,0,1.73.65,3.16,3.16,0,0,0,1.72-.54,5.75,5.75,0,0,0,1.57-1.61A11.67,11.67,0,0,0,31.8,22.47Z"/></g><path class="cls-5" d="M31.54,22.22c.21-.57.44-1.23.71-2A12.4,12.4,0,0,0,32.82,18a5.19,5.19,0,0,0,0-2,2,2,0,0,0-1.06-1.38,4.56,4.56,0,0,0-1.17-.44,7.71,7.71,0,0,0-1-.17,5.14,5.14,0,0,0-1,0l.32-1.31a.84.84,0,0,0,.53.18,2.25,2.25,0,0,0,.73-.16,4,4,0,0,0,1.11-.68,7.68,7.68,0,0,0,1.2-1.3,12.17,12.17,0,0,0,1.34-2.1,10.17,10.17,0,0,0,.88-2.46,4,4,0,0,0-.14-2.35c-.2-.51-.5-.79-.88-.83a1.81,1.81,0,0,0-1.29.54A7.75,7.75,0,0,0,30.8,5.4a18.39,18.39,0,0,0-1.47,3c-.49,1.44-1,2.84-1.46,4.19s-1,2.74-1.45,4.14-1,2.9-1.45,4.46-1,3.26-1.52,5.12a2.54,2.54,0,0,1-.66,1.21,2,2,0,0,1-1,.53,3.76,3.76,0,0,1-1.27.06c-.46-.05-.93-.13-1.42-.23L26.62,2.55a5.48,5.48,0,0,1,1.73.31,2.16,2.16,0,0,1,.89.56,1.12,1.12,0,0,1,.28.66,1.09,1.09,0,0,1-.12.55,13.83,13.83,0,0,1,.92-1.21A5.43,5.43,0,0,1,31.5,2.36a4.34,4.34,0,0,1,1.56-.63,5.31,5.31,0,0,1,2,.05A4.93,4.93,0,0,1,37,2.59a4.09,4.09,0,0,1,1.4,1.66,5.72,5.72,0,0,1,.53,2.16,6.93,6.93,0,0,1-.28,2.33,7.58,7.58,0,0,1-1.06,2.2,6.86,6.86,0,0,1-1.79,1.73,6.27,6.27,0,0,1-2.48.93l-.83.14-.26.06h-.09a.71.71,0,0,0-.22,0A11.91,11.91,0,0,1,34.36,15a4.8,4.8,0,0,1,1.73,1.88,5.49,5.49,0,0,1,.48,2.86,12.66,12.66,0,0,1-1.23,4.19A7.92,7.92,0,0,1,34,26.15a8.89,8.89,0,0,1-1.86,1.63,7.28,7.28,0,0,1-2.13,1,6.71,6.71,0,0,1-2.14.26A4.68,4.68,0,0,1,26,28.53a3.65,3.65,0,0,1-1.44-1.26l.73-.95A2.8,2.8,0,0,0,27,27a3.15,3.15,0,0,0,1.72-.55,5.78,5.78,0,0,0,1.58-1.61A11.58,11.58,0,0,0,31.54,22.22Z"/></g></g></svg>