<?xml version="1.0" encoding="utf-8"?>
<!-- Generator: Adobe Illustrator 24.0.0, SVG Export Plug-In . SVG Version: 6.00 Build 0)  -->
<svg version="1.1" id="Layer_1" xmlns="http://www.w3.org/2000/svg" xmlns:xlink="http://www.w3.org/1999/xlink" x="0px" y="0px"
	 viewBox="0 0 104 48" style="enable-background:new 0 0 104 48;" xml:space="preserve">
<style type="text/css">
	.st0{opacity:0.6;}
	.st1{fill:url(#SVGID_1_);}
	.st2{fill:url(#SVGID_2_);}
	.st3{fill:url(#SVGID_3_);}
	.st4{fill:#0A71B5;}
	.st5{fill:#231F20;}
	.st6{fill:url(#SVGID_4_);}
</style>
<g>
	<g id="Layer_1_1_">
		<g class="st0">
			<path d="M48.23,0.37h-0.42c-0.3,0.03-0.6,0.1-0.89,0.21c-0.4,0.14-0.76,0.37-1.06,0.67c-0.31,0.33-0.54,0.74-0.65,1.18
				c-0.49,1.88-0.97,3.61-1.44,5.2s-0.92,3.11-1.35,4.56c-0.44,1.45-0.87,2.87-1.3,4.24c-0.43,1.37-0.84,2.8-1.24,4.26l0,0
				c0,0,0,0-0.09-0.07c-0.09-0.14-0.17-0.28-0.23-0.43c-0.16-0.36-0.31-0.73-0.43-1.1c-0.19-0.52-0.41-1.22-0.68-2.09
				s-0.61-2-1-3.34s-0.88-3-1.42-4.93c-0.54-1.93-1.22-4.21-1.92-6.86c-0.04-0.21-0.17-0.39-0.34-0.51
				c-0.17-0.12-0.36-0.2-0.56-0.25c-0.25-0.06-0.51-0.09-0.77-0.08l6.77,24.33l0,0c0.17,0.44,0.54,0.77,1,0.88
				c0.57,0.14,1.17,0.17,1.75,0.07l7.27-24.62l0.34-1.13l0.06-0.19H48.23z"/>
		</g>
		
			<linearGradient id="SVGID_1_" gradientUnits="userSpaceOnUse" x1="33.2877" y1="30.6605" x2="49.5776" y2="54.2105" gradientTransform="matrix(1 0 0 -1 -0.25 49.75)">
			<stop  offset="0" style="stop-color:#16B1DA"/>
			<stop  offset="0.52" style="stop-color:#0A71B5"/>
			<stop  offset="0.95" style="stop-color:#08679A"/>
		</linearGradient>
		<path class="st1" d="M47.98,0.12h-0.42c-0.3,0.03-0.6,0.1-0.89,0.2C46.27,0.47,45.9,0.7,45.6,1c-0.31,0.33-0.53,0.73-0.64,1.17
			c-0.5,1.88-0.98,3.62-1.44,5.21c-0.47,1.58-0.92,3.1-1.36,4.56c-0.44,1.46-0.87,2.86-1.29,4.24s-0.84,2.79-1.24,4.25
			c0,0,0,0-0.05,0s0,0-0.09-0.08c-0.09-0.13-0.17-0.27-0.23-0.42c-0.1-0.22-0.24-0.59-0.43-1.11c-0.19-0.52-0.41-1.21-0.68-2.08
			s-0.6-2-1-3.35c-0.4-1.35-0.87-3-1.42-4.92c-0.55-1.92-1.17-4.21-1.87-6.84c-0.05-0.21-0.17-0.39-0.34-0.52
			c-0.18-0.11-0.38-0.19-0.58-0.24c-0.25-0.06-0.5-0.08-0.76-0.07l6.77,24.32l0,0c0.17,0.44,0.54,0.77,1,0.89
			c0.58,0.14,1.18,0.16,1.76,0.06l7.27-24.63l0.33-1.13l0.06-0.19H47.98z"/>
		<g class="st0">
			<path d="M66.81,0.37H49.63l-0.06,0.19l-0.34,1.13h3.45l-0.81,2.7l-5.14,17.35c-0.26,0.92-0.52,1.89-0.77,2.92s-0.48,2-0.68,3
				c-0.21,0.97-0.34,1.95-0.38,2.94c-0.04,0.79,0.05,1.59,0.27,2.35c0.17,0.61,0.52,1.16,1,1.57c0.53,0.39,1.17,0.6,1.82,0.59
				c0.93,0.05,1.86-0.13,2.71-0.53c0.83-0.4,1.57-0.95,2.2-1.62c0.71-0.75,1.34-1.57,1.86-2.46c0.57-1,1.12-2,1.66-3.11h-0.81
				c-0.42,0.01-0.8,0.25-1,0.61c-0.35,0.68-0.75,1.36-1.18,2.06c-0.5,0.82-1.08,1.59-1.74,2.29c-0.51,0.56-1.13,1.01-1.83,1.31
				c-0.59,0.25-1.27,0.14-1.75-0.29c-0.17-0.12-0.25-0.39-0.25-0.79c0.01-0.51,0.06-1.01,0.16-1.51c0.12-0.61,0.27-1.28,0.48-2
				s0.44-1.53,0.7-2.36c0.13-0.43,0.32-1.06,0.57-1.87s0.54-1.76,0.87-2.81c0.33-1.05,0.67-2.19,1-3.4c0.33-1.21,0.73-2.43,1.1-3.66
				l1.08-3.59l0.93-3.19c0.28-1,0.52-1.79,0.71-2.49s0.33-1.17,0.38-1.44c0.18-0.48,0.3-0.99,0.34-1.51c0.02-0.34-0.02-0.68-0.12-1
				h9.41C66.47,1.59,66.92,1.13,66.81,0.37z"/>
		</g>
		
			<linearGradient id="SVGID_2_" gradientUnits="userSpaceOnUse" x1="49.2459" y1="28.0476" x2="58.5359" y2="47.9676" gradientTransform="matrix(1 0 0 -1 -0.25 49.75)">
			<stop  offset="0" style="stop-color:#16B1DA"/>
			<stop  offset="0.52" style="stop-color:#0A71B5"/>
			<stop  offset="0.95" style="stop-color:#08679A"/>
		</linearGradient>
		<path class="st2" d="M66.55,0.12H49.37l-0.06,0.19l-0.33,1.13h3.44l-0.81,2.7l-5.14,17.35c-0.26,0.91-0.51,1.89-0.76,2.91
			s-0.48,2-0.69,3c-0.21,0.97-0.34,1.95-0.37,2.94c-0.04,0.79,0.05,1.59,0.26,2.35c0.17,0.61,0.52,1.15,1,1.56
			c0.52,0.4,1.16,0.61,1.81,0.59c0.93,0.06,1.86-0.12,2.71-0.52c0.83-0.41,1.57-0.96,2.21-1.62c0.71-0.75,1.33-1.58,1.85-2.47
			c0.57-0.95,1.12-2,1.66-3.1h-0.81c-0.42,0-0.8,0.24-1,0.61c-0.36,0.67-0.75,1.36-1.18,2.06c-0.5,0.82-1.09,1.59-1.75,2.29
			c-0.51,0.56-1.13,1.01-1.83,1.31c-0.6,0.25-1.28,0.12-1.76-0.31c-0.2-0.22-0.29-0.51-0.25-0.8c0.01-0.51,0.07-1.01,0.17-1.51
			c0.11-0.6,0.27-1.28,0.47-2c0.2-0.72,0.44-1.54,0.7-2.36c0.13-0.44,0.32-1.06,0.57-1.88s0.54-1.75,0.87-2.81
			c0.33-1.06,0.67-2.18,1-3.4c0.33-1.22,0.76-2.46,1.16-3.64c0.4-1.18,0.73-2.42,1.07-3.59s0.66-2.23,0.94-3.23s0.51-1.79,0.71-2.48
			s0.32-1.18,0.38-1.45c0.18-0.49,0.29-0.99,0.33-1.51c0.02-0.34-0.01-0.68-0.11-1h9.41C66.23,1.31,66.66,0.87,66.55,0.12z"/>
		<g class="st0">
			<path d="M63.98,22.59c0.2-0.57,0.44-1.23,0.7-2c0.26-0.72,0.45-1.46,0.58-2.21c0.13-0.66,0.13-1.34,0-2
				c-0.12-0.6-0.51-1.11-1.06-1.38c-0.37-0.2-0.76-0.35-1.17-0.44c-0.33-0.08-0.66-0.14-1-0.17c-0.33-0.03-0.67-0.03-1,0l0.33-1.31
				c0.15,0.12,0.33,0.18,0.52,0.18c0.25-0.01,0.5-0.07,0.73-0.16c0.4-0.16,0.78-0.39,1.11-0.68c0.45-0.39,0.86-0.82,1.21-1.3
				c0.46-0.65,0.86-1.34,1.18-2.07c0.4-0.78,0.69-1.61,0.88-2.46c0.19-0.78,0.15-1.6-0.13-2.35c-0.21-0.51-0.5-0.79-0.88-0.83
				c-0.49,0-0.95,0.19-1.29,0.54c-0.58,0.53-1.07,1.14-1.46,1.82c-0.58,0.95-1.07,1.96-1.46,3c-0.5,1.44-1,2.84-1.47,4.19
				s-1,2.74-1.44,4.14s-1,2.9-1.46,4.46s-1,3.26-1.52,5.12c-0.1,0.45-0.33,0.86-0.65,1.19c-0.28,0.26-0.63,0.45-1,0.54
				c-0.42,0.08-0.85,0.1-1.27,0.05c-0.47-0.05-0.94-0.13-1.42-0.23l7.51-25.31c0.59,0.01,1.18,0.12,1.74,0.31
				c0.34,0.11,0.64,0.31,0.89,0.56c0.17,0.18,0.26,0.41,0.27,0.66c0.01,0.19-0.03,0.38-0.12,0.55c0.28-0.4,0.58-0.81,0.92-1.21
				c0.34-0.41,0.74-0.77,1.18-1.06c0.47-0.31,1-0.52,1.56-0.63c0.66-0.13,1.34-0.13,2,0c0.67,0.14,1.29,0.42,1.85,0.81
				c0.61,0.42,1.09,0.99,1.4,1.66c0.31,0.68,0.49,1.42,0.53,2.17c0.04,0.78-0.06,1.57-0.29,2.32c-0.23,0.79-0.59,1.53-1.06,2.2
				c-0.49,0.68-1.09,1.27-1.79,1.73c-0.75,0.48-1.59,0.8-2.47,0.93c-0.42,0.06-0.69,0.11-0.83,0.14l-0.27,0.06h-0.08
				c-0.08-0.01-0.15-0.01-0.23,0c0.87,0.29,1.71,0.69,2.49,1.19c0.74,0.46,1.34,1.11,1.73,1.88c0.42,0.89,0.59,1.88,0.48,2.86
				c-0.16,1.46-0.57,2.87-1.22,4.19c-0.33,0.82-0.79,1.58-1.36,2.25c-0.54,0.63-1.17,1.18-1.86,1.63c-0.65,0.44-1.36,0.78-2.12,1
				c-0.7,0.2-1.42,0.29-2.15,0.26c-0.65-0.04-1.28-0.21-1.86-0.51c-0.58-0.28-1.08-0.72-1.44-1.26l0.73-0.95
				c0.48,0.4,1.09,0.63,1.72,0.65c0.61-0.01,1.21-0.19,1.72-0.52c0.63-0.43,1.16-0.97,1.57-1.61
				C63.22,24.38,63.66,23.51,63.98,22.59z"/>
		</g>
		
			<linearGradient id="SVGID_3_" gradientUnits="userSpaceOnUse" x1="63.9583" y1="52.4215" x2="83.0883" y2="52.4215" gradientTransform="matrix(0.9995 0.0312 0.0312 -0.9995 -13.8801 65.4949)">
			<stop  offset="0" style="stop-color:#16B1DA"/>
			<stop  offset="0.52" style="stop-color:#0A71B5"/>
			<stop  offset="0.95" style="stop-color:#08679A"/>
		</linearGradient>
		<path class="st3" d="M63.72,22.33c0.2-0.57,0.44-1.23,0.71-2c0.25-0.72,0.44-1.46,0.57-2.21c0.13-0.66,0.13-1.34,0-2
			c-0.12-0.6-0.51-1.11-1.06-1.38c-0.37-0.2-0.76-0.35-1.17-0.44c-0.35-0.08-0.7-0.13-1.05-0.17c-0.33-0.03-0.67-0.03-1,0l0.26-1.26
			c0.15,0.13,0.34,0.19,0.53,0.18c0.25,0,0.5-0.05,0.73-0.15c0.4-0.17,0.77-0.4,1.11-0.68c0.44-0.39,0.84-0.83,1.2-1.3
			c0.52-0.66,0.96-1.36,1.34-2.11c0.4-0.78,0.69-1.61,0.88-2.46c0.19-0.78,0.14-1.6-0.14-2.35c-0.21-0.51-0.5-0.78-0.88-0.82
			c-0.48,0-0.95,0.19-1.29,0.54c-0.59,0.53-1.08,1.14-1.48,1.82c-0.58,0.95-1.07,1.96-1.47,3c-0.49,1.45-1,2.85-1.46,4.2
			s-0.94,2.71-1.45,4.13s-1,2.89-1.45,4.45s-1,3.27-1.52,5.12c-0.1,0.46-0.33,0.88-0.66,1.21c-0.28,0.27-0.62,0.45-1,0.54
			c-0.42,0.09-0.85,0.11-1.27,0.06c-0.48-0.05-0.95-0.13-1.42-0.24L58.8,2.66c0.59,0.01,1.17,0.12,1.73,0.31
			c0.34,0.12,0.64,0.31,0.89,0.57c0.17,0.18,0.26,0.41,0.27,0.66c0.02,0.19-0.02,0.38-0.11,0.55c0.28-0.42,0.59-0.83,0.92-1.22
			c0.34-0.4,0.74-0.76,1.18-1.06c0.47-0.31,1-0.51,1.55-0.6c0.68-0.13,1.38-0.13,2.06,0c0.66,0.15,1.28,0.43,1.82,0.84
			c0.61,0.41,1.1,0.99,1.4,1.66c0.34,0.67,0.54,1.41,0.6,2.16c0.02,0.79-0.09,1.58-0.33,2.34c-0.23,0.78-0.6,1.52-1.07,2.19
			c-0.48,0.69-1.08,1.27-1.78,1.73c-0.75,0.49-1.6,0.81-2.48,0.94c-0.41,0.06-0.69,0.1-0.83,0.14h-0.26c-0.03,0.01-0.06,0.01-0.09,0
			h-0.22c0.87,0.31,1.71,0.71,2.49,1.2c0.74,0.46,1.33,1.1,1.73,1.87c0.43,0.91,0.59,1.93,0.48,2.93c-0.17,1.46-0.58,2.87-1.23,4.19
			c-0.32,0.82-0.78,1.59-1.36,2.26c-0.54,0.6-1.17,1.12-1.85,1.55c-0.65,0.44-1.37,0.78-2.13,1c-0.7,0.2-1.42,0.28-2.14,0.26
			c-0.67-0.03-1.33-0.19-1.93-0.49c-0.58-0.28-1.08-0.72-1.44-1.26l0.73-1c0.49,0.41,1.1,0.64,1.73,0.65
			c0.61-0.01,1.21-0.2,1.72-0.54c0.63-0.43,1.16-0.97,1.58-1.61C62.96,24.09,63.39,23.23,63.72,22.33z"/>
		<g class="st0">
			<path d="M54.88,47.67v-7.16h-1.66v-1.58h5v1.58h-1.68v7.16H54.88z"/>
			<path d="M59.42,47.67v-8.74h6.5v1.58h-4.81v2h4.81v1.56h-4.81v2h4.81v1.6H59.42z"/>
			<path d="M74.35,45.28h1.93c-0.34,0.79-0.93,1.45-1.67,1.89c-0.75,0.46-1.62,0.7-2.5,0.7c-1.25,0.02-2.45-0.47-3.32-1.36
				c-0.89-0.83-1.39-2-1.38-3.22c-0.01-1.21,0.48-2.37,1.37-3.2c0.88-0.88,2.08-1.36,3.33-1.33c0.91,0,1.8,0.25,2.58,0.73
				c0.76,0.44,1.36,1.12,1.69,1.94h-1.9c-0.29-0.34-0.65-0.61-1.06-0.79c-0.41-0.19-0.86-0.29-1.31-0.29
				c-0.79-0.01-1.55,0.31-2.09,0.88c-0.58,0.55-0.91,1.32-0.91,2.12c0,0.78,0.32,1.52,0.89,2.06c0.86,0.89,2.18,1.14,3.31,0.63
				C73.7,45.86,74.06,45.6,74.35,45.28z"/>
			<path d="M77.75,47.67v-8.74h1.69v3.49h3.22v-3.49h1.66v8.74h-1.66v-3.66h-3.22v3.66H77.75z"/>
		</g>
		<path class="st4" d="M54.62,47.41v-7.15h-1.66v-1.59h5v1.59h-1.68v7.15H54.62z"/>
		<path class="st4" d="M59.17,47.41v-8.74h6.5v1.59h-4.82v2h4.82v1.61h-4.82v2h4.82v1.58L59.17,47.41z"/>
		<path class="st4" d="M74.11,45.03h1.93c-0.35,0.78-0.94,1.42-1.68,1.84c-0.75,0.47-1.62,0.71-2.51,0.71
			c-1.24,0.02-2.44-0.47-3.31-1.35c-0.89-0.84-1.39-2.01-1.38-3.23c0-1.19,0.5-2.32,1.37-3.13c0.86-0.87,2.04-1.35,3.27-1.33
			c0.91-0.01,1.81,0.25,2.59,0.73c0.76,0.43,1.37,1.1,1.72,1.91h-1.94c-0.29-0.34-0.64-0.61-1.05-0.8
			c-0.41-0.19-0.86-0.29-1.32-0.29c-0.79-0.01-1.55,0.32-2.09,0.89c-0.57,0.55-0.88,1.32-0.87,2.11c0,0.79,0.32,1.54,0.9,2.07
			c0.55,0.57,1.3,0.89,2.09,0.88c0.42,0.01,0.84-0.08,1.22-0.25C73.45,45.61,73.81,45.35,74.11,45.03z"/>
		<path class="st4" d="M77.5,47.41v-8.74h1.68v3.5h3.23v-3.5h1.7v8.74h-1.7v-3.66h-3.23v3.66H77.5z"/>
		<g class="st0">
			<path d="M21.61,41h1.36l1.35,3l1.34-3h1.35l-2.26,5.14h-0.87L21.61,41z"/>
			<path d="M28.72,38.87c0.23,0,0.44,0.09,0.6,0.25c0.33,0.31,0.34,0.83,0.02,1.16c-0.01,0.01-0.01,0.01-0.02,0.02
				c-0.15,0.16-0.37,0.25-0.59,0.25c-0.23,0.01-0.45-0.08-0.62-0.24c-0.16-0.16-0.25-0.37-0.25-0.6c0-0.22,0.09-0.44,0.25-0.59
				C28.27,38.96,28.49,38.87,28.72,38.87z M28.05,40.99h1.33v5.14h-1.33V40.99z"/>
			<path d="M31,41h1.33v0.53c0.25-0.21,0.53-0.39,0.83-0.52c0.24-0.09,0.49-0.14,0.75-0.14c0.5-0.01,0.98,0.18,1.34,0.53
				c0.34,0.37,0.51,0.85,0.47,1.35v3.39H34.4v-2.27c0.02-0.41-0.01-0.82-0.09-1.22c-0.04-0.18-0.15-0.35-0.3-0.46
				c-0.15-0.11-0.33-0.17-0.52-0.16c-0.26-0.01-0.51,0.09-0.7,0.26c-0.2,0.2-0.34,0.45-0.4,0.73c-0.05,0.33-0.07,0.67-0.06,1v2.06
				H31V41z"/>
			<path d="M41.34,41h1.33v5.14h-1.33V45.6c-0.23,0.22-0.5,0.4-0.79,0.52c-0.27,0.11-0.56,0.16-0.85,0.16
				c-0.68,0.01-1.32-0.28-1.78-0.78c-0.5-0.51-0.77-1.2-0.75-1.92c-0.04-0.74,0.22-1.46,0.72-2c0.46-0.48,1.11-0.73,1.77-0.71
				c0.31,0,0.61,0.06,0.9,0.17c0.29,0.13,0.55,0.31,0.78,0.53V41z M39.93,42.06c-0.38,0-0.74,0.15-1,0.42
				c-0.28,0.29-0.43,0.69-0.41,1.09c-0.02,0.4,0.13,0.8,0.41,1.09c0.26,0.28,0.62,0.44,1,0.44c0.38,0,0.74-0.16,1-0.43
				c0.29-0.3,0.44-0.7,0.42-1.11c0.02-0.4-0.14-0.79-0.42-1.08C40.67,42.22,40.31,42.06,39.93,42.06z"/>
			<path d="M45.75,39.02v2.55c0.23-0.22,0.49-0.4,0.78-0.53c0.29-0.11,0.59-0.17,0.9-0.17c0.67-0.01,1.32,0.26,1.77,0.76
				c0.51,0.54,0.77,1.26,0.73,2c0.02,0.72-0.25,1.41-0.75,1.92c-0.46,0.5-1.11,0.79-1.79,0.78c-0.29,0-0.58-0.06-0.85-0.16
				c-0.29-0.12-0.56-0.3-0.79-0.52v0.54h-1.33v-7.17H45.75z M47.15,42.02c-0.38,0-0.74,0.15-1,0.42c-0.28,0.29-0.44,0.68-0.42,1.08
				c-0.04,0.42,0.1,0.84,0.38,1.15c0.26,0.27,0.62,0.43,1,0.43c0.38,0,0.74-0.16,1-0.44c0.55-0.62,0.55-1.56,0-2.18
				c-0.26-0.27-0.62-0.42-1-0.42L47.15,42.02z"/>
			<path d="M51.96,38.87c0.23,0,0.44,0.09,0.6,0.25c0.16,0.15,0.26,0.37,0.25,0.59c0,0.22-0.08,0.43-0.24,0.59
				c-0.16,0.16-0.37,0.25-0.6,0.25c-0.47,0.01-0.85-0.37-0.86-0.84c0,0,0-0.01,0-0.01c0-0.22,0.09-0.44,0.25-0.59
				C51.52,38.96,51.74,38.87,51.96,38.87z M51.29,40.99h1.34v5.14h-1.34V40.99z"/>
		</g>
		<path class="st5" d="M21.36,40.75h1.36l1.34,3l1.34-3h1.36l-2.27,5.12h-0.86L21.36,40.75z"/>
		<path class="st5" d="M28.46,38.63c0.24-0.02,0.48,0.07,0.65,0.24c0.16,0.16,0.25,0.37,0.25,0.6c0.01,0.22-0.09,0.44-0.25,0.59
			c-0.16,0.16-0.37,0.24-0.59,0.24c-0.47,0.01-0.85-0.37-0.86-0.84c0,0,0-0.01,0-0.01c-0.02-0.21,0.05-0.42,0.2-0.58
			C28.02,38.72,28.24,38.63,28.46,38.63z M27.79,40.75h1.32v5.12h-1.32V40.75z"/>
		<path class="st5" d="M30.74,40.75h1.37v0.52c0.24-0.21,0.52-0.38,0.82-0.51c0.24-0.1,0.5-0.15,0.76-0.15
			c0.5-0.01,0.98,0.19,1.34,0.54c0.33,0.36,0.5,0.85,0.46,1.34v3.38h-1.38v-2.23c0.04-0.41,0.04-0.82,0-1.23
			c-0.05-0.18-0.15-0.34-0.3-0.46c-0.16-0.1-0.34-0.16-0.53-0.15c-0.25,0-0.5,0.09-0.69,0.26c-0.21,0.19-0.35,0.44-0.4,0.72
			c-0.06,0.36-0.09,0.72-0.08,1.09v2h-1.37V40.75z"/>
		<path class="st5" d="M41.11,40.75h1.34v5.12h-1.34v-0.54c-0.23,0.22-0.49,0.39-0.78,0.51c-0.27,0.11-0.56,0.16-0.85,0.16
			c-0.68,0-1.33-0.27-1.79-0.77c-0.5-0.51-0.77-1.21-0.75-1.92c-0.04-0.74,0.22-1.46,0.73-2c0.46-0.49,1.1-0.77,1.77-0.76
			c0.31,0,0.62,0.06,0.9,0.18c0.29,0.12,0.55,0.3,0.77,0.52V40.75z M39.71,41.81c-0.38,0-0.74,0.15-1,0.42
			c-0.55,0.62-0.55,1.56,0,2.18c0.26,0.28,0.62,0.43,1,0.43c0.39,0.01,0.77-0.14,1.05-0.42c0.26-0.31,0.38-0.71,0.35-1.11
			c0.02-0.4-0.13-0.8-0.41-1.09c-0.27-0.27-0.64-0.42-1.02-0.41L39.71,41.81z"/>
		<path class="st5" d="M45.5,38.76v2.55c0.23-0.22,0.49-0.4,0.78-0.52c0.28-0.12,0.59-0.18,0.9-0.18c0.67,0,1.31,0.27,1.77,0.76
			c0.5,0.54,0.77,1.26,0.73,2c0.02,0.72-0.26,1.41-0.76,1.92c-0.46,0.49-1.11,0.77-1.78,0.77c-0.29,0-0.59-0.05-0.86-0.16
			c-0.29-0.12-0.55-0.29-0.78-0.51v0.48h-1.33v-7.11H45.5z M46.9,41.76c-0.39-0.01-0.77,0.13-1.05,0.41
			c-0.28,0.29-0.43,0.69-0.41,1.09c-0.02,0.41,0.13,0.81,0.41,1.11c0.28,0.28,0.66,0.43,1.05,0.42c0.38,0,0.74-0.15,1-0.43
			c0.55-0.62,0.55-1.56,0-2.18c-0.27-0.25-0.63-0.38-1-0.37V41.76z"/>
		<path class="st5" d="M51.71,38.63c0.22,0,0.44,0.08,0.6,0.24c0.16,0.16,0.25,0.37,0.25,0.6c0.01,0.22-0.09,0.44-0.25,0.59
			c-0.33,0.33-0.87,0.33-1.2,0c-0.17-0.15-0.26-0.37-0.25-0.6c-0.01-0.22,0.08-0.44,0.25-0.59C51.27,38.71,51.49,38.63,51.71,38.63z
			 M51.04,40.75h1.33v5.12h-1.33V40.75z"/>
		<g class="st0">
			<path d="M35.33,47.16h17.31v0.51H28.36l4.75-0.42C33.83,47.19,34.58,47.16,35.33,47.16z"/>
		</g>
		
			<linearGradient id="SVGID_4_" gradientUnits="userSpaceOnUse" x1="28.3607" y1="2.6203" x2="52.6307" y2="2.6203" gradientTransform="matrix(1 0 0 -1 -0.25 49.75)">
			<stop  offset="0" style="stop-color:#16B1DA"/>
			<stop  offset="0.52" style="stop-color:#0A71B5"/>
			<stop  offset="0.95" style="stop-color:#08679A"/>
		</linearGradient>
		<path class="st6" d="M35.11,46.87h17.27v0.51H28.11l4.73-0.41C33.57,46.93,34.32,46.87,35.11,46.87z"/>
	</g>
</g>
</svg>
